<?xml version="1.0" standalone="no"?>
<!DOCTYPE svg PUBLIC "-//W3C//DTD SVG 20010904//EN"
 "http://www.w3.org/TR/2001/REC-SVG-20010904/DTD/svg10.dtd">
<svg version="1.0" xmlns="http://www.w3.org/2000/svg"
 width="474.000000pt" height="474.000000pt" viewBox="0 0 474.000000 474.000000"
 preserveAspectRatio="xMidYMid meet">
<metadata>
Created by potrace 1.14, written by Peter Selinger 2001-2017
</metadata>
<g transform="translate(0.000000,474.000000) scale(0.100000,-0.100000)"
fill="#000000" stroke="none">
<path d="M2925 4171 c-3 -5 4 -13 16 -16 11 -4 18 -9 15 -12 -3 -4 11 -20 31
-37 21 -17 52 -46 71 -63 18 -18 34 -33 36 -33 2 0 55 -49 117 -110 62 -60
116 -107 119 -104 3 3 -3 11 -13 18 -9 7 -17 18 -17 25 0 6 -4 11 -9 11 -6 0
-45 34 -88 76 -43 42 -113 108 -156 147 -54 50 -73 73 -62 75 13 3 14 7 4 18
-13 16 -55 19 -64 5z"/>
<path d="M2827 4107 c-28 -35 -41 -90 -28 -116 7 -11 18 -21 25 -21 8 0 20 -8
27 -17 8 -9 9 -14 2 -10 -6 4 -22 -6 -36 -22 -14 -17 -36 -31 -53 -33 -28 -3
-26 -5 41 -55 39 -29 76 -50 83 -48 6 2 12 -1 12 -8 0 -7 26 -29 58 -50 149
-98 212 -149 194 -155 -7 -2 -20 2 -29 10 -15 11 -16 11 -10 -5 4 -10 7 -26 7
-35 0 -9 23 -32 50 -51 28 -18 50 -39 50 -45 0 -6 5 -3 11 7 6 9 15 14 21 11
6 -4 14 -1 18 6 5 8 15 10 26 6 11 -4 14 -10 9 -14 -6 -4 -16 -15 -23 -24 -12
-16 -9 -20 35 -40 26 -13 50 -25 53 -28 15 -16 62 -40 69 -36 10 7 66 -43 57
-51 -3 -3 -12 -1 -20 6 -9 8 -21 8 -40 1 -22 -8 -34 -4 -76 20 -28 17 -53 30
-56 30 -3 0 -19 9 -34 20 l-29 20 -15 -21 c-15 -22 -54 -20 -41 1 14 22 24 70
14 64 -6 -3 -32 12 -58 34 -43 36 -49 39 -71 27 -13 -7 -29 -12 -34 -11 -6 2
-8 1 -3 -1 8 -5 10 -33 2 -33 -2 0 -55 35 -117 77 -62 42 -139 94 -170 116
-32 21 -58 43 -58 48 0 5 -8 9 -18 9 -10 0 -29 12 -43 26 -13 14 -36 32 -51
40 -35 18 -43 47 -22 79 10 16 12 25 5 25 -6 0 -14 -7 -17 -15 -4 -8 -10 -15
-15 -15 -6 0 -5 9 1 21 16 29 4 36 -21 13 -21 -19 -22 -19 -15 4 9 27 35 26
-474 12 -787 -22 -1284 -44 -1329 -61 -13 -6 -31 -19 -38 -29 -8 -11 -25 -20
-38 -20 -17 0 -30 -12 -49 -44 -30 -52 -36 -87 -10 -66 12 11 15 11 12 -1 -2
-8 -10 -20 -18 -27 -13 -12 -13 -13 0 -7 9 4 7 0 -3 -9 -12 -9 -17 -21 -13
-34 11 -34 -13 -72 -45 -72 -24 0 -33 -8 -54 -50 -29 -56 -32 -80 -10 -80 22
0 18 -28 -5 -42 -21 -13 -27 -38 -11 -38 6 0 0 -23 -11 -51 -16 -39 -26 -50
-42 -48 -39 3 -44 -1 -67 -58 -23 -56 -32 -123 -16 -123 4 0 7 5 7 12 0 6 3 9
6 6 9 -10 -16 -48 -31 -48 -17 0 -20 -21 -5 -36 7 -7 3 -27 -11 -62 -20 -48
-24 -52 -55 -52 -32 0 -35 -4 -70 -77 -27 -55 -34 -80 -27 -91 6 -11 4 -28
-10 -55 -10 -21 -16 -45 -13 -53 8 -21 44 -17 57 7 11 21 11 21 30 2 21 -21
24 -41 13 -87 -4 -16 -2 -31 3 -35 6 -3 27 -37 48 -76 48 -89 53 -95 77 -92
20 2 24 -3 105 -153 148 -274 336 -617 343 -625 4 -5 21 -35 37 -65 102 -189
115 -209 136 -216 32 -10 1107 -1 1107 10 0 5 7 3 15 -4 12 -10 16 -9 22 6 5
11 19 20 33 22 13 1 28 8 32 15 5 8 8 5 8 -9 0 -26 -10 -24 400 -83 191 -28
190 -28 190 -51 0 -25 4 -25 -203 5 -95 13 -210 29 -257 35 -47 5 -95 12 -107
16 -21 6 -23 3 -23 -27 0 -19 5 -50 10 -71 8 -29 14 -35 30 -31 25 7 25 8 -1
34 -11 11 -18 24 -14 27 4 4 11 -1 16 -11 6 -9 15 -15 20 -11 6 3 129 -14 275
-37 258 -43 264 -44 264 -67 0 -20 -4 -23 -27 -18 -16 3 -57 10 -93 15 -36 6
-112 17 -170 25 -58 9 -123 18 -145 20 -73 9 4 -11 95 -24 210 -30 318 -50
355 -65 22 -10 62 -17 90 -17 27 1 91 -3 140 -8 50 -5 131 -12 180 -15 50 -3
151 -11 225 -18 74 -7 158 -9 185 -6 48 6 48 6 -20 8 -38 1 -76 5 -84 10 -9 6
30 8 100 5 115 -5 246 3 235 14 -4 3 -14 6 -24 7 -78 7 -192 40 -192 55 0 7
67 -1 125 -15 47 -12 26 2 -56 36 -68 28 -181 47 -291 49 -19 0 -28 5 -28 16
0 10 6 14 18 10 17 -5 48 -9 204 -25 77 -7 253 0 264 12 3 2 -37 12 -88 22
-95 18 -152 45 -94 45 15 0 55 -7 88 -16 33 -8 62 -13 64 -11 3 2 -24 15 -58
27 -35 13 -67 27 -73 32 -5 4 -18 8 -30 9 -11 1 -6 4 14 9 19 5 41 6 50 3 11
-3 10 -1 -2 7 -14 9 -30 9 -58 2 -27 -7 -37 -7 -32 1 4 7 0 8 -11 4 -24 -9
-256 14 -256 26 0 5 28 6 68 2 79 -7 338 -9 367 -1 11 2 32 5 48 5 45 2 35 35
-18 58 l-45 19 70 23 c67 21 97 45 104 83 2 7 8 26 14 41 7 16 12 30 12 32 0
2 24 43 54 92 29 48 90 151 134 228 44 77 121 212 172 300 98 170 152 266 228
408 26 49 68 118 95 154 26 36 47 72 47 81 0 13 -79 142 -215 352 -23 36 -68
109 -100 163 -32 53 -61 97 -65 97 -5 0 -18 19 -30 43 -12 23 -81 134 -153
247 -91 141 -141 209 -160 218 -19 9 -111 15 -327 19 -165 3 -300 3 -300 -1 0
-9 50 -86 72 -112 19 -21 19 -21 -12 -27 -37 -8 -37 -17 -4 -57 21 -24 29 -28
36 -18 6 9 7 5 3 -11 -6 -19 -4 -23 8 -18 11 4 14 2 10 -9 -4 -12 -1 -13 22
-4 40 15 50 12 31 -9 -10 -11 -15 -24 -11 -30 8 -14 89 -69 106 -73 8 -2 18
-8 24 -14 5 -7 26 -15 46 -18 23 -4 43 -16 57 -36 16 -20 18 -28 7 -24 -8 4
-15 11 -15 16 0 6 -7 7 -16 4 -14 -5 -15 -4 -4 9 10 12 10 15 -4 15 -9 0 -16
-7 -16 -15 0 -8 -7 -15 -15 -15 -8 0 -15 5 -15 11 0 5 -4 8 -9 4 -5 -3 -12 -1
-15 4 -3 5 -15 7 -26 4 -12 -3 -22 1 -26 11 -3 9 -11 16 -16 16 -6 0 -27 14
-47 30 -20 17 -41 35 -48 40 -7 6 -19 2 -34 -11 -29 -25 -34 -18 -14 20 14 27
14 31 0 31 -8 0 -15 4 -15 8 0 4 -15 25 -34 46 -31 33 -37 36 -57 26 -12 -7
-24 -8 -28 -4 -3 5 -15 16 -26 24 -11 8 -7 0 8 -17 19 -21 25 -33 17 -38 -6
-4 -33 15 -63 44 -70 70 -222 215 -284 273 -31 28 -54 59 -58 78 -4 16 -11 30
-16 30 -6 0 -3 10 5 22 9 12 16 26 16 30 0 16 -26 7 -43 -15z m162 -264 c14
-12 29 -19 34 -16 6 3 7 1 3 -5 -4 -7 -4 -12 1 -12 17 0 74 -58 63 -65 -5 -3
-10 -1 -10 4 0 6 -6 11 -13 11 -6 0 -33 19 -58 43 -68 62 -123 106 -128 102
-8 -9 -8 -85 0 -85 5 0 9 -4 9 -10 0 -17 -26 -11 -46 12 -13 14 -14 19 -4 14
9 -4 8 -2 -2 7 -10 8 -18 19 -18 25 0 20 32 51 46 45 8 -3 14 0 14 7 0 11 55
-28 109 -77z m-474 -63 c3 -5 1 -10 -4 -10 -6 0 -11 5 -11 10 0 6 2 10 4 10 3
0 8 -4 11 -10z m62 -58 c22 -21 62 -57 88 -80 54 -47 51 -57 -4 -15 -20 16
-38 27 -41 26 -3 -1 -17 8 -30 19 -14 11 -18 17 -10 13 8 -3 6 0 -4 7 -30 20
-56 47 -56 58 0 18 15 11 57 -28z m898 8 c10 -11 14 -20 9 -20 -5 0 -15 9 -22
20 -7 11 -11 20 -9 20 2 0 12 -9 22 -20z m-975 -20 c0 -5 -6 -9 -12 -7 -7 1
-12 -6 -10 -15 2 -12 -4 -18 -15 -18 -11 0 -19 8 -20 19 -2 18 4 21 50 30 4 0
7 -3 7 -9z m629 -38 c16 -4 110 -85 105 -91 -2 -2 -27 18 -55 44 -32 30 -54
44 -58 37 -4 -7 -14 1 -25 21 -17 31 -17 32 1 12 10 -11 25 -21 32 -23z m-789
8 c0 -5 -9 -10 -19 -10 -18 0 -38 -17 -30 -24 2 -2 28 0 56 3 43 6 58 4 80
-11 34 -22 43 -23 43 -4 0 17 22 27 38 17 7 -4 13 -19 14 -33 2 -22 16 -33
105 -76 l102 -50 -24 36 c-30 45 -32 56 -4 42 18 -10 46 -64 42 -81 -1 -3 47
-30 108 -59 60 -30 109 -56 109 -57 0 -2 -9 -12 -21 -24 -16 -16 -18 -24 -10
-32 7 -7 15 -12 19 -13 4 0 25 -8 47 -18 52 -24 92 -27 99 -10 6 17 16 17 52
4 l27 -11 -21 -15 c-29 -20 -28 -40 6 -61 15 -10 30 -22 33 -26 4 -5 13 -7 20
-5 8 3 22 -1 32 -10 15 -14 17 -13 17 1 0 21 16 22 24 2 3 -8 1 -15 -4 -15 -5
0 -7 -7 -3 -17 7 -19 3 -18 -100 20 -66 25 -67 25 -81 6 -10 -15 -20 -18 -40
-13 -24 6 -26 10 -20 40 5 26 3 34 -8 34 -8 0 -24 9 -36 20 -12 11 -27 20 -34
20 -8 0 -23 7 -35 15 -19 13 -23 13 -37 -1 -9 -8 -16 -19 -16 -24 0 -14 -33
-21 -44 -10 -8 8 -5 9 9 5 18 -6 18 -5 2 5 -9 6 -22 8 -27 5 -6 -3 -10 -1 -10
5 0 6 -4 9 -9 6 -5 -4 -11 -2 -13 2 -1 5 -91 53 -198 106 -107 53 -199 101
-206 107 -6 5 -23 10 -38 11 -14 1 -26 5 -26 9 0 4 -9 5 -20 2 -15 -4 -20 0
-20 16 0 12 5 31 10 42 15 26 -4 24 -22 -3 -14 -20 -14 -19 -11 18 l4 39 -26
-30 -26 -30 15 39 c15 37 13 64 -2 40 -6 -10 -72 -26 -72 -18 0 14 38 34 65
34 20 0 50 11 71 25 38 26 64 32 64 15z m1185 0 c3 -5 1 -10 -4 -10 -6 0 -11
5 -11 10 0 6 2 10 4 10 3 0 8 -4 11 -10z m135 -116 c0 -9 -37 15 -51 33 -10
12 -5 11 19 -6 17 -12 32 -24 32 -27z m-430 -9 c0 -10 -16 -4 -40 16 l-25 20
33 -16 c17 -8 32 -18 32 -20z m-1118 3 c-7 -7 -12 -8 -12 -2 0 14 12 26 19 19
2 -3 -1 -11 -7 -17z m-352 -15 c13 -12 11 -13 -13 -4 -16 6 -45 11 -65 11 -28
0 -33 3 -22 10 19 12 80 2 100 -17z m280 0 c13 -13 11 -14 -20 -7 -37 8 -83 7
-112 -2 -27 -8 -21 3 10 21 32 17 99 11 122 -12z m-811 -9 c3 -2 0 -8 -5 -13
-5 -6 -28 -5 -57 3 -26 7 -44 16 -40 20 7 7 93 -1 102 -10z m256 -7 c12 -6 15
-12 8 -14 -7 -3 -20 0 -30 6 -11 5 -39 7 -64 5 -42 -5 -43 -5 -24 11 21 17 70
14 110 -8z m-584 -10 c-12 -12 -45 -1 -37 12 3 5 15 7 27 4 13 -4 17 -9 10
-16z m59 -17 c9 -17 8 -19 -12 -11 -26 9 -36 31 -14 31 8 0 20 -9 26 -20z
m385 1 c-3 -6 -11 -11 -17 -11 -6 0 -6 6 2 15 14 17 26 13 15 -4z m785 -3 c0
-6 -6 -8 -13 -5 -7 2 -26 -6 -42 -19 -23 -18 -26 -24 -12 -24 9 0 17 5 17 10
0 7 24 9 63 7 45 -2 89 -15 160 -45 54 -23 108 -43 120 -45 12 -1 24 -4 27 -7
6 -7 321 -153 363 -169 31 -12 35 -28 10 -39 -12 -5 -18 -18 -18 -39 0 -31 2
-33 33 -33 36 0 92 -25 92 -41 0 -6 9 -5 23 3 12 7 27 12 32 13 12 0 14 34 3
58 -5 10 -5 17 2 17 5 0 10 -6 10 -13 0 -7 16 -19 35 -26 37 -13 45 -28 21
-37 -9 -4 -13 -17 -12 -40 2 -19 0 -34 -4 -34 -4 0 -13 -14 -20 -30 -7 -17
-18 -28 -24 -25 -6 3 -19 8 -28 11 -10 4 -18 14 -18 23 0 24 -28 61 -47 61 -8
0 -37 11 -63 24 -46 23 -48 23 -66 6 -21 -21 -16 -22 -174 45 -30 13 -82 34
-115 47 -33 12 -73 31 -90 40 -16 10 -37 18 -45 18 -8 0 -37 11 -65 24 -90 43
-172 76 -204 82 -30 6 -32 9 -26 38 5 25 4 28 -5 14 -16 -26 -30 -22 -30 8 l0
25 -25 -28 c-13 -15 -25 -22 -25 -15 0 24 30 85 56 111 43 42 104 59 104 29z
m249 -84 c18 -8 31 -18 28 -21 -9 -8 -157 69 -151 79 3 4 24 -3 47 -18 23 -14
57 -32 76 -40z m-1139 17 c0 -5 -7 -11 -14 -14 -10 -4 -13 -1 -9 9 6 15 23 19
23 5z m532 -13 c-7 -7 -12 -8 -12 -2 0 14 12 26 19 19 2 -3 -1 -11 -7 -17z
m1881 -7 c15 -8 27 -20 27 -27 0 -8 12 -10 40 -7 38 5 44 3 81 -37 32 -34 38
-45 28 -56 -10 -12 -6 -21 17 -47 16 -17 35 -36 42 -40 7 -5 30 -23 50 -40
l37 -31 -25 29 c-14 16 -44 48 -67 72 -24 23 -43 45 -43 50 1 12 190 -187 190
-200 0 -7 -9 -1 -20 13 -11 14 -20 20 -20 14 0 -14 35 -46 42 -38 10 9 50 -55
42 -67 -4 -7 -3 -9 4 -6 6 4 32 -29 62 -79 53 -88 60 -125 12 -64 -36 46 -138
147 -187 185 -21 17 -53 42 -71 58 -35 30 -54 36 -33 10 13 -15 12 -15 -8 -2
-16 9 -19 16 -10 21 8 5 0 20 -28 50 -22 23 -43 44 -48 46 -4 2 -5 8 -1 13 3
5 -1 9 -9 9 -8 0 -18 -7 -21 -16 -8 -20 -26 -9 -26 17 0 10 -4 19 -10 19 -5 0
-10 7 -10 16 0 9 -9 18 -21 21 -12 3 -18 11 -15 19 3 8 9 21 12 29 4 9 -3 19
-19 26 -14 6 -27 22 -30 36 -2 13 -2 22 2 21 3 -2 18 -10 34 -17z m-2182 -24
c-10 -9 -11 -8 -5 6 3 10 9 15 12 12 3 -3 0 -11 -7 -18z m126 -9 c-3 -7 -5 -2
-5 12 0 14 2 19 5 13 2 -7 2 -19 0 -25z m-1140 16 c-3 -3 -12 -4 -19 -1 -8 3
-5 6 6 6 11 1 17 -2 13 -5z m2543 -19 c7 -8 8 -15 2 -15 -5 0 -15 7 -22 15 -7
8 -8 15 -2 15 5 0 15 -7 22 -15z m-1320 -65 c0 -5 3 -15 6 -24 5 -13 -1 -16
-30 -16 -41 0 -42 2 -20 35 14 22 44 25 44 5z m-591 -56 c0 -43 -3 -54 -14
-50 -8 3 -17 1 -20 -4 -4 -6 -2 -10 3 -10 12 0 25 -30 17 -38 -3 -3 -12 4 -21
16 -15 22 -64 31 -64 12 0 -7 -7 -7 -20 0 -11 6 -24 9 -29 6 -5 -3 -6 8 -2 25
5 24 14 34 42 43 34 12 51 23 82 52 20 19 26 7 26 -52z m861 41 c0 -8 -6 -15
-14 -15 -20 0 -29 17 -14 23 22 9 28 7 28 -8z m-580 -21 c0 -16 -36 -19 -45
-4 -3 6 1 10 9 10 9 0 16 5 16 11 0 5 5 7 10 4 6 -3 10 -13 10 -21z m-620 1
c0 -3 -6 -14 -12 -25 -11 -17 -9 -23 9 -42 20 -19 23 -20 29 -5 3 9 10 17 16
17 5 0 6 -5 2 -11 -3 -6 0 -16 7 -21 11 -7 9 -8 -5 -4 -23 8 -47 -10 -39 -30
3 -8 -1 -14 -11 -14 -9 0 -19 -12 -22 -26 -6 -22 -8 -24 -16 -10 -7 12 -26 16
-76 17 -37 1 -55 4 -41 6 17 3 29 12 32 25 3 11 10 17 16 14 6 -4 8 2 6 15 -4
19 -1 21 40 17 50 -4 52 -2 29 30 -12 17 -12 22 -2 23 10 0 10 2 0 6 -17 7 -5
23 19 23 10 0 19 -2 19 -5z m2742 -39 c6 4 17 -1 25 -11 7 -11 13 -14 13 -7 0
8 7 9 25 2 18 -7 23 -6 19 4 -3 7 3 16 13 20 9 4 14 4 10 0 -4 -4 15 -22 42
-40 27 -19 52 -38 56 -44 11 -18 -21 -11 -43 10 -12 12 -22 17 -22 12 0 -6 12
-17 26 -27 19 -12 23 -20 15 -29 -9 -10 -4 -16 19 -26 16 -7 30 -17 30 -22 0
-6 7 -8 15 -4 8 3 14 0 12 -7 -1 -7 5 -12 13 -12 8 0 17 -2 20 -5 3 -3 19 -15
37 -27 40 -29 67 -30 33 -2 -20 16 -21 18 -4 10 40 -19 175 -153 170 -168 -3
-8 -1 -11 4 -8 5 3 19 -9 30 -27 11 -18 20 -29 20 -24 0 6 14 -9 31 -32 17
-24 29 -46 25 -49 -3 -3 -30 16 -59 43 -30 27 -78 65 -106 84 -29 19 -65 44
-79 56 -44 34 -116 71 -130 66 -18 -6 -53 28 -45 42 4 6 0 5 -9 -2 -13 -11
-21 -8 -49 18 -37 33 -33 39 9 13 l27 -16 -27 25 c-15 14 -25 28 -22 31 4 3
-3 5 -14 4 -13 -1 -18 -6 -14 -16 3 -9 1 -12 -5 -8 -6 4 -14 1 -16 -5 -4 -8
-8 -5 -12 9 -4 12 -24 33 -46 47 -34 23 -38 29 -29 51 5 14 6 25 2 25 -4 1
-18 10 -31 20 -20 17 -22 22 -10 37 13 15 14 15 17 -1 2 -9 8 -13 14 -10z
m-2142 10 c0 -11 -19 -15 -25 -6 -3 5 1 10 9 10 9 0 16 -2 16 -4z m900 -34
c188 -75 231 -92 325 -132 176 -73 188 -81 165 -95 -14 -9 -80 16 -73 28 3 5
-4 6 -17 2 -17 -5 -21 -4 -15 5 5 8 4 11 -3 7 -13 -9 -44 2 -37 13 3 4 -10 10
-27 14 -18 4 -51 15 -73 25 -44 21 -120 56 -205 94 -128 57 -150 68 -150 73 0
8 18 2 110 -34z m-1552 11 c-10 -2 -26 -2 -35 0 -10 3 -2 5 17 5 19 0 27 -2
18 -5z m855 -13 c-3 -12 -8 -19 -11 -16 -5 6 5 36 12 36 2 0 2 -9 -1 -20z
m394 4 c-3 -3 -12 -4 -19 -1 -8 3 -5 6 6 6 11 1 17 -2 13 -5z m-714 -32 c-3
-12 -10 -22 -15 -22 -5 0 -7 3 -5 8 2 4 7 16 11 26 9 25 17 16 9 -12z m2579
-24 c15 -16 24 -28 20 -28 -13 0 -82 61 -82 72 0 12 20 -3 62 -44z m-2494 24
c3 -9 -2 -13 -14 -10 -9 1 -19 9 -22 16 -3 9 2 13 14 10 9 -1 19 -9 22 -16z
m317 8 c8 -13 -15 -13 -35 0 -12 8 -11 10 7 10 12 0 25 -4 28 -10z m1246 -7
c13 -16 12 -17 -3 -4 -17 13 -22 21 -14 21 2 0 10 -8 17 -17z m-1161 -22 c0
-3 -21 -7 -46 -7 -39 -2 -43 0 -27 11 9 7 23 11 30 8 7 -3 13 0 13 7 0 10 3
10 15 0 8 -7 15 -15 15 -19z m-323 -3 c-3 -8 -6 -5 -6 6 -1 11 2 17 5 13 3 -3
4 -12 1 -19z m513 11 c0 -7 12 -8 33 -5 32 6 32 6 -5 -10 -21 -9 -35 -20 -32
-25 3 -5 -1 -9 -8 -9 -10 0 -9 -3 2 -9 8 -6 18 -7 24 -4 5 3 6 1 2 -5 -8 -14
-52 4 -53 21 0 7 -2 17 -3 22 -6 23 1 35 20 35 11 0 20 -5 20 -11z m-1031 -33
c-7 -14 -16 -26 -21 -26 -5 0 -1 14 7 31 20 37 31 33 14 -5z m408 3 c-3 -11 0
-19 6 -19 7 0 5 -5 -3 -10 -8 -5 -24 -9 -35 -9 -17 1 -17 2 -2 6 11 3 17 14
17 34 0 19 4 28 11 23 6 -3 9 -15 6 -25z m537 16 c-7 -17 -20 -20 -28 -6 -7
10 3 21 20 21 8 0 11 -6 8 -15z m-636 -14 c3 -8 -1 -12 -9 -9 -7 2 -15 10 -17
17 -3 8 1 12 9 9 7 -2 15 -10 17 -17z m1077 -11 c13 -5 14 -9 5 -9 -8 0 -24 4
-35 9 -13 5 -14 9 -5 9 8 0 24 -4 35 -9z m1502 -30 c68 -52 69 -61 1 -13 -65
45 -74 53 -63 53 4 0 32 -18 62 -40z m-2813 9 c-31 -12 -40 -9 -20 6 10 8 24
11 29 8 6 -4 2 -10 -9 -14z m866 17 c0 -11 -19 -15 -25 -6 -3 5 1 10 9 10 9 0
16 -2 16 -4z m1502 -18 c-17 -17 -42 -19 -35 -2 3 8 9 12 13 9 5 -3 12 0 15 6
4 5 10 8 13 4 3 -3 0 -11 -6 -17z m-1717 2 c-3 -5 -16 -10 -28 -10 -18 0 -19
2 -7 10 20 13 43 13 35 0z m90 0 c3 -5 2 -10 -4 -10 -5 0 -13 5 -16 10 -3 6
-2 10 4 10 5 0 13 -4 16 -10z m348 -4 c4 -10 1 -13 -8 -9 -8 3 -12 9 -9 14 7
12 11 11 17 -5z m-1253 -6 c0 -5 -4 -10 -10 -10 -5 0 -10 5 -10 10 0 6 5 10
10 10 6 0 10 -4 10 -10z m2305 -8 c-3 -3 -11 0 -18 7 -9 10 -8 11 6 5 10 -3
15 -9 12 -12z m275 7 c0 -5 -6 -7 -12 -4 -7 4 -4 -1 7 -10 11 -9 28 -14 37
-12 10 3 15 0 12 -8 -4 -9 2 -11 19 -8 14 3 28 0 31 -6 4 -6 13 -11 19 -11 7
0 -1 9 -16 19 -54 35 -5 30 67 -7 59 -31 66 -37 52 -48 -11 -7 -13 -15 -7 -18
6 -4 8 -14 5 -24 -5 -14 -4 -15 5 -2 7 10 11 11 11 3 0 -7 5 -13 10 -13 6 0
22 -8 37 -17 14 -10 33 -18 41 -19 8 -2 18 -6 21 -11 3 -5 37 -22 75 -38 38
-16 92 -44 119 -62 65 -44 75 -49 57 -30 -29 30 -185 128 -278 175 -52 25 -89
48 -84 50 14 4 77 -28 197 -101 140 -86 196 -127 188 -139 -3 -6 -2 -8 4 -5 5
3 26 -9 46 -27 21 -19 37 -32 37 -30 0 3 14 -11 31 -31 18 -20 30 -38 27 -40
-2 -3 -31 13 -64 35 -32 22 -65 40 -71 40 -7 0 -13 5 -13 10 0 6 -5 10 -11 10
-6 0 -59 23 -117 51 -195 94 -235 111 -241 101 -3 -5 -19 -3 -38 4 -25 11 -31
18 -28 39 2 24 1 24 -15 10 -17 -16 -40 -20 -40 -7 0 4 -25 20 -55 37 -37 20
-54 34 -50 44 8 20 -14 41 -41 41 -28 0 -31 16 -8 48 16 23 34 29 34 11z
m-2320 -9 c0 -5 -2 -10 -4 -10 -3 0 -8 5 -11 10 -3 6 -1 10 4 10 6 0 11 -4 11
-10z m330 0 c0 -5 -2 -10 -4 -10 -3 0 -8 5 -11 10 -3 6 -1 10 4 10 6 0 11 -4
11 -10z m479 -25 c-18 -30 -19 -35 -5 -35 9 0 16 7 16 15 0 14 5 16 28 14 4 0
6 -8 4 -17 -2 -10 0 -13 5 -6 4 6 17 14 28 18 l20 8 -20 8 -20 9 20 0 c23 1
168 -41 455 -131 244 -77 264 -82 255 -68 -3 5 1 10 10 10 9 0 15 -6 12 -12
-2 -7 10 -20 27 -28 18 -9 31 -23 32 -35 2 -43 15 -57 45 -51 16 3 29 1 29 -4
0 -6 16 -10 35 -10 19 0 35 -4 35 -9 0 -4 10 -8 23 -7 17 1 21 6 19 24 -3 21
-1 23 20 17 13 -4 32 -14 43 -21 26 -18 33 -18 38 4 3 10 5 6 6 -10 1 -17 -4
-27 -11 -25 -6 1 -13 -7 -15 -18 -3 -15 -2 -17 5 -6 6 9 12 10 16 3 4 -6 13
-9 21 -5 11 4 13 1 9 -11 -3 -9 -10 -16 -15 -16 -5 0 -16 -14 -25 -31 -12 -25
-21 -30 -40 -26 -13 2 -24 0 -24 -4 0 -5 -4 -9 -10 -9 -5 0 -10 5 -10 10 0 12
-40 54 -40 43 0 -5 -5 -1 -10 7 -5 8 -13 15 -17 15 -4 1 -18 6 -29 13 -12 6
-24 9 -27 5 -10 -10 -38 19 -33 33 3 9 0 11 -11 7 -11 -4 -14 -2 -9 5 4 7 1
12 -9 12 -8 0 -20 -11 -25 -25 -5 -14 -14 -25 -19 -25 -6 0 -8 -7 -5 -15 7
-18 0 -19 -29 -3 -12 6 -35 15 -52 19 -142 36 -196 52 -302 88 -68 22 -135 41
-151 41 -15 0 -38 7 -50 16 -13 9 -28 14 -35 11 -7 -2 -23 0 -37 6 -14 5 -36
11 -49 13 -50 6 -111 39 -111 59 0 15 -3 16 -12 7 -21 -21 -38 -13 -38 16 l-1
27 -16 -30 c-14 -25 -18 -27 -21 -12 -6 28 4 57 37 110 37 57 73 68 40 12z
m-1232 18 c-4 -3 -2 -12 4 -19 8 -10 5 -11 -13 -7 -17 3 -19 2 -9 -5 10 -7 0
-11 -37 -13 -27 -2 -48 -1 -45 4 2 4 19 7 36 7 23 0 28 3 18 9 -8 5 -21 7 -30
4 -12 -3 -11 0 3 11 19 15 87 24 73 9z m97 -27 c3 -13 9 -32 13 -43 11 -32 -6
-8 -22 30 -8 20 -11 37 -6 37 5 0 12 -11 15 -24z m245 3 c24 -9 30 -14 21 -23
-8 -8 -14 -7 -21 4 -9 12 -10 12 -5 -3 7 -21 -9 -29 -61 -30 -27 -1 -45 -10
-69 -34 -36 -36 -73 -38 -51 -2 6 10 19 19 28 19 9 0 24 10 33 23 9 12 14 16
10 8 -5 -9 -3 -12 4 -7 7 4 12 13 12 20 0 13 34 34 56 35 6 1 26 -4 43 -10z
m104 -39 c3 -11 2 -20 -3 -20 -8 0 -20 24 -20 41 0 17 17 1 23 -21z m335 -16
c-3 -14 -7 -10 -16 16 -12 32 -11 34 4 19 9 -9 14 -25 12 -35z m332 18 c0 -15
-2 -15 -10 -2 -13 20 -13 33 0 25 6 -3 10 -14 10 -23z m690 18 c8 -5 11 -10 5
-10 -5 0 -17 5 -25 10 -8 5 -10 10 -5 10 6 0 17 -5 25 -10z m-853 -6 c-3 -3
-12 -4 -19 -1 -8 3 -5 6 6 6 11 1 17 -2 13 -5z m928 -25 c22 -10 29 -16 15
-13 -28 7 -80 33 -65 33 6 0 28 -9 50 -20z m-1874 -27 c5 -14 3 -22 -6 -26 -9
-3 -12 -12 -8 -22 5 -13 2 -15 -18 -9 -43 14 -54 11 -55 -15 -1 -33 -14 -70
-25 -70 -5 0 -9 -12 -9 -26 0 -19 -4 -25 -15 -20 -12 4 -13 2 -3 -14 11 -17
13 -17 25 -2 9 11 8 5 -2 -16 -9 -18 -21 -30 -26 -26 -7 4 -9 -1 -5 -13 4 -13
-1 -26 -16 -39 -21 -19 -21 -19 -13 1 4 11 10 32 13 47 2 15 8 25 13 22 5 -3
6 2 3 10 -3 9 -11 16 -18 16 -24 -1 -73 -98 -62 -125 4 -11 2 -14 -6 -9 -7 5
-9 2 -5 -9 3 -8 -2 -25 -12 -36 -17 -19 -28 -21 -117 -19 l-99 2 97 3 96 4 12
52 c10 50 90 212 114 232 6 6 19 22 28 37 13 20 14 28 5 32 -9 5 -9 7 1 12 12
6 22 15 50 48 16 20 52 7 63 -22z m2483 11 c21 -24 27 -26 49 -16 23 11 26 9
37 -18 7 -16 10 -32 6 -36 -3 -3 -6 -2 -6 3 0 5 -4 15 -9 23 -8 12 -12 12 -25
2 -13 -11 -19 -10 -36 10 -10 13 -19 18 -20 12 0 -15 -9 -16 -29 -4 -8 5 -11
16 -6 30 8 27 11 27 39 -6z m-2124 7 c0 -5 -7 -10 -15 -10 -8 0 -15 5 -15 10
0 6 7 10 15 10 8 0 15 -4 15 -10z m192 -12 c-11 -13 -26 -36 -32 -53 -11 -27
-13 -28 -20 -10 -9 25 -2 45 16 45 7 0 18 9 24 20 6 11 16 20 22 20 6 0 2 -10
-10 -22z m2094 -22 c-4 -18 0 -28 20 -41 20 -13 23 -19 14 -31 -13 -14 -13
-14 34 -28 7 -3 19 1 25 7 8 8 11 8 11 -1 0 -7 5 -12 10 -12 6 0 10 9 10 21 0
17 4 19 23 13 27 -8 120 -54 127 -63 3 -3 39 -23 80 -44 74 -37 62 -42 -14 -6
-44 21 -66 24 -66 9 0 -5 5 -10 11 -10 6 0 17 -7 26 -15 8 -8 18 -13 23 -10 9
6 86 -27 223 -96 53 -27 97 -47 97 -45 0 3 -34 24 -75 47 -41 24 -73 44 -71
46 6 7 176 -93 176 -104 0 -2 -5 -1 -12 3 -7 5 -8 3 -4 -5 5 -7 14 -10 22 -7
8 3 14 1 14 -4 0 -6 6 -10 14 -10 8 0 16 -3 18 -7 2 -5 33 -30 70 -58 37 -27
67 -56 68 -62 0 -19 -11 -16 -61 15 -52 33 -189 105 -239 125 -19 8 -96 40
-171 71 -75 32 -140 56 -145 55 -5 -2 -38 11 -74 29 -36 17 -73 33 -84 37 -13
4 -17 12 -14 30 3 13 1 22 -3 19 -4 -2 -19 -2 -33 2 -19 4 -29 17 -38 45 -11
37 -28 53 -28 27 0 -9 -4 -8 -10 2 -7 11 -10 11 -10 2 0 -7 -4 -10 -10 -7 -15
9 -12 55 4 55 8 0 16 7 20 15 9 25 29 17 22 -9z m744 -13 c0 -7 -39 17 -46 28
-3 6 5 3 20 -6 14 -10 26 -19 26 -22z m-3065 14 c6 0 10 -20 11 -44 0 -24 0
-43 -2 -43 -1 0 -15 5 -30 10 -36 14 -61 6 -44 -15 14 -17 30 -20 30 -6 0 5
-7 12 -15 14 -11 4 -10 4 2 3 10 -1 18 -10 19 -21 1 -29 -7 -39 -17 -24 -7 11
-13 9 -29 -11 -11 -14 -20 -21 -20 -16 0 5 7 17 16 27 14 16 14 18 -5 24 -23
7 -29 25 -8 25 8 0 7 3 -3 9 -8 6 -19 7 -25 5 -5 -3 2 4 18 16 15 12 27 28 27
35 0 17 20 25 45 18 11 -4 25 -6 30 -6z m354 -19 c14 -39 7 -53 -27 -51 -23 2
-30 -1 -26 -11 3 -7 -2 -16 -10 -19 -11 -4 -13 -15 -9 -42 4 -26 2 -35 -7 -33
-7 2 -14 -6 -16 -18 -2 -11 -10 -34 -19 -50 -17 -33 -19 -54 -6 -54 13 0 -17
-57 -33 -63 -15 -6 -15 -5 3 106 6 38 20 92 31 120 11 29 20 53 20 55 0 8 -21
0 -34 -14 -9 -8 -16 -11 -16 -5 0 5 5 13 10 16 6 4 22 24 36 46 21 33 29 39
59 39 28 0 38 -5 44 -22z m339 -7 c0 -9 3 -26 7 -38 6 -18 3 -23 -10 -23 -14
0 -15 -3 -5 -15 8 -10 9 -15 2 -15 -6 0 -9 -7 -6 -15 4 -8 3 -15 -1 -15 -3 0
-13 7 -21 15 -9 9 -11 15 -4 15 6 0 8 5 4 11 -4 8 -9 7 -14 -2 -10 -15 10 -49
29 -49 9 0 11 -7 6 -22 -3 -13 -11 -43 -16 -67 -12 -59 -19 -63 -19 -13 0 23
-4 42 -10 42 -17 0 -32 -42 -27 -75 6 -36 0 -49 -26 -53 -16 -3 -18 4 -16 60
2 65 22 160 39 191 8 13 7 17 -5 17 -12 0 -13 5 -3 28 17 38 33 49 67 44 19
-3 30 -10 29 -21z m-158 0 c0 -20 -26 -36 -35 -21 -8 13 6 40 21 40 8 0 14 -9
14 -19z m1127 -7 c-3 -4 -2 -15 4 -25 6 -11 6 -19 0 -19 -9 0 -21 23 -21 41 0
5 5 9 12 9 6 0 8 -3 5 -6z m-2039 -17 c14 4 14 3 2 -5 -16 -12 -30 -7 -29 11
0 9 2 9 5 0 3 -7 13 -9 22 -6z m2122 -22 c11 -13 10 -14 -4 -9 -9 3 -16 10
-16 15 0 13 6 11 20 -6z m-1416 -39 c-3 -9 -10 -13 -15 -10 -5 3 -3 11 4 19
15 16 19 13 11 -9z m-424 -5 c0 -6 -5 -13 -11 -17 -6 -3 -8 -16 -5 -29 4 -15
-2 -32 -15 -49 -12 -15 -23 -45 -26 -66 -3 -22 -10 -40 -14 -40 -5 0 -9 -7 -9
-15 0 -21 47 -19 59 3 6 9 10 13 11 7 0 -20 -16 -32 -52 -38 -21 -3 -40 -2
-43 2 -5 10 43 157 71 214 17 35 34 49 34 28z m969 -30 c-3 -6 -10 -7 -18 -2
-7 5 -10 14 -6 21 9 14 29 -2 24 -19z m-49 -2 c0 -11 -4 -17 -10 -14 -5 3 -10
13 -10 21 0 8 5 14 10 14 6 0 10 -9 10 -21z m195 -38 c37 -13 244 -76 303 -91
23 -6 42 -15 42 -20 0 -5 6 -7 13 -5 6 3 32 -2 57 -9 25 -8 38 -15 30 -16 -10
-1 -9 -4 5 -10 27 -12 43 -12 25 0 -25 16 -3 12 106 -22 70 -21 104 -36 104
-46 0 -12 -2 -12 -17 -1 -11 10 -14 10 -9 2 10 -18 1 -17 -84 11 -179 57 -220
70 -315 97 -55 15 -149 44 -208 63 -60 19 -114 33 -122 30 -20 -8 -55 14 -55
35 0 18 3 18 48 6 26 -7 61 -18 77 -24z m-710 -28 c-3 -10 -9 -30 -12 -45 -3
-16 -9 -28 -14 -28 -12 0 -11 47 1 55 5 3 7 12 3 20 -3 10 1 15 12 15 12 0 15
-5 10 -17z m220 -3 c3 -5 -3 -10 -15 -10 -12 0 -18 5 -15 10 3 6 10 10 15 10
5 0 12 -4 15 -10z m345 6 c0 -9 -30 -14 -35 -6 -4 6 3 10 14 10 12 0 21 -2 21
-4z m1940 -42 c0 -2 -13 2 -30 11 -16 9 -30 18 -30 21 0 2 14 -2 30 -11 17 -9
30 -18 30 -21z m-1843 18 c14 -9 12 -37 -5 -54 -7 -7 -12 -18 -12 -25 0 -7 -4
-13 -10 -13 -5 0 -10 17 -10 38 0 21 -5 43 -12 50 -9 9 -7 12 13 12 13 0 29
-4 36 -8z m-1050 -45 c-11 -25 -27 -36 -27 -19 0 9 33 52 37 48 2 -1 -3 -14
-10 -29z m243 23 c0 -5 -4 -10 -10 -10 -5 0 -10 5 -10 10 0 6 5 10 10 10 6 0
10 -4 10 -10z m2344 -15 c11 -8 15 -15 9 -15 -19 0 -43 12 -43 21 0 13 12 11
34 -6z m-338 -24 c-4 -5 -1 -12 4 -14 6 -3 5 -4 -2 -3 -15 3 -23 26 -8 26 6 0
9 -4 6 -9z m221 -26 c5 -4 -3 -5 -17 -2 -14 4 -30 7 -36 7 -7 0 -14 6 -17 14
-4 11 1 11 29 1 18 -6 37 -15 41 -20z m178 25 c3 -6 -1 -7 -9 -4 -18 7 -21 14
-7 14 6 0 13 -4 16 -10z m-457 -18 c6 -18 -15 -14 -22 4 -4 10 -1 14 6 12 6
-2 14 -10 16 -16z m-28 -13 c0 -6 -4 -7 -10 -4 -5 3 -10 11 -10 16 0 6 5 7 10
4 6 -3 10 -11 10 -16z m-1573 -31 c-3 -7 -5 -2 -5 12 0 14 2 19 5 13 2 -7 2
-19 0 -25z m1786 -29 c-11 -11 -16 39 -5 55 4 6 8 -1 10 -18 2 -16 0 -32 -5
-37z m-2133 47 c0 -3 -4 -8 -10 -11 -5 -3 -10 -1 -10 4 0 6 5 11 10 11 6 0 10
-2 10 -4z m2173 -44 c-4 -9 -2 -14 2 -9 5 4 17 -1 27 -10 18 -16 18 -16 12 0
-7 19 14 20 29 2 5 -5 5 0 2 13 -3 12 -2 22 3 22 15 0 147 -47 180 -64 37 -19
42 -30 10 -21 -13 3 -6 -4 14 -15 20 -11 61 -26 90 -34 77 -20 207 -65 251
-88 22 -11 41 -18 43 -15 4 4 -38 26 -136 72 -30 14 -44 22 -30 19 51 -13 191
-84 185 -94 -4 -6 1 -7 11 -3 12 4 15 3 10 -5 -5 -8 -2 -10 8 -6 19 7 196
-102 196 -121 0 -28 -28 -37 -97 -30 -88 10 -260 41 -298 54 -29 11 -29 11 10
7 22 -3 78 -12 125 -20 119 -22 250 -32 250 -18 0 12 -100 52 -131 52 -11 0
-37 9 -59 20 -22 11 -46 20 -55 20 -8 0 -15 5 -15 12 0 6 -3 9 -6 5 -5 -5 -80
18 -169 53 -39 15 -91 29 -150 40 -105 21 -249 71 -274 96 -22 22 -35 28 -53
25 -5 0 -8 15 -8 34 0 26 4 33 14 29 9 -3 12 -13 9 -22z m-2370 11 c-13 -2
-33 -2 -45 0 -13 2 -3 4 22 4 25 0 35 -2 23 -4z m125 0 c-10 -2 -26 -2 -35 0
-10 3 -2 5 17 5 19 0 27 -2 18 -5z m-485 -10 c-29 -2 -77 -2 -105 0 -29 2 -6
3 52 3 58 0 81 -1 53 -3z m1228 -76 c-9 -36 1 -52 13 -22 8 23 28 18 21 -5 -9
-30 14 -25 25 6 8 21 14 24 33 18 12 -4 49 -8 82 -10 86 -3 85 -3 83 -16 -3
-12 68 -32 89 -24 19 8 126 -16 138 -29 13 -16 98 -37 105 -26 8 13 81 0 87
-15 3 -8 13 -14 23 -14 11 0 21 -4 24 -9 4 -5 39 -15 79 -21 74 -12 117 -38
117 -69 0 -13 -2 -14 -9 -2 -7 11 -10 9 -13 -10 -3 -23 -5 -24 -77 -21 -41 2
-95 8 -120 13 -25 6 -63 12 -84 15 -21 2 -47 9 -57 14 -10 5 -56 13 -103 16
-71 6 -84 9 -79 22 4 11 1 14 -12 9 -27 -10 -191 16 -213 35 -8 6 -13 7 -13 1
0 -6 -20 -8 -46 -5 -32 3 -49 0 -56 -9 -8 -11 -9 -10 -4 4 3 9 3 24 0 32 -5
12 -8 12 -22 -2 -16 -16 -17 -14 -23 18 l-6 34 -11 -27 c-17 -42 -25 -34 -20
21 4 41 43 129 54 119 1 -2 -1 -20 -5 -41z m2119 3 c8 -5 11 -10 5 -10 -5 0
-17 5 -25 10 -8 5 -10 10 -5 10 6 0 17 -5 25 -10z m-980 -15 c22 -8 28 -13 15
-13 -11 0 -36 6 -55 13 -22 8 -28 13 -15 13 11 0 36 -6 55 -13z m-810 -25 c13
-9 13 -10 0 -9 -8 1 -26 5 -40 9 l-25 8 25 1 c14 0 32 -4 40 -9z m1975 -40
c18 -8 18 -9 -5 -9 -14 0 -32 4 -40 9 -12 8 -12 10 5 9 11 0 29 -4 40 -9z m45
-4 c0 -3 -4 -8 -10 -11 -5 -3 -10 -1 -10 4 0 6 5 11 10 11 6 0 10 -2 10 -4z
m-732 -57 c39 -12 72 -26 72 -31 0 -4 -2 -8 -4 -8 -13 0 -152 54 -161 63 -7 6
-5 8 5 4 8 -3 48 -16 88 -28z m-798 -15 c0 -2 -9 -4 -20 -4 -11 0 -20 4 -20 9
0 5 9 7 20 4 11 -3 20 -7 20 -9z m1045 -63 c-8 -7 -135 32 -146 45 -6 8 21 2
69 -14 44 -15 79 -29 77 -31z m-1831 -21 c14 -10 179 -45 566 -120 91 -17 188
-36 216 -41 44 -9 51 -13 47 -29 -3 -11 -8 -20 -12 -20 -3 0 -78 13 -166 29
-88 16 -268 49 -400 72 -189 33 -243 46 -254 61 -7 10 -21 18 -30 18 -9 0 -22
5 -29 12 -9 9 -12 7 -12 -10 0 -25 -15 -29 -24 -6 -9 25 -7 56 4 49 6 -3 10
-2 10 3 0 12 65 -2 84 -18z m1101 -7 c8 4 17 1 21 -5 4 -7 9 -6 15 3 6 10 9 8
9 -8 0 -26 7 -27 44 -13 19 7 26 6 26 -2 0 -9 3 -9 11 -1 9 9 15 8 26 -3 13
-13 13 -17 -7 -34 -13 -11 -27 -17 -31 -14 -5 3 -9 -2 -9 -11 0 -13 -4 -12
-22 5 -27 25 -35 25 -43 1 -4 -15 -13 -18 -43 -14 -46 6 -53 13 -68 63 -11 36
-10 39 10 42 11 2 27 0 33 -5 7 -5 19 -7 28 -4z m842 1 c-3 -3 -12 -4 -19 -1
-8 3 -5 6 6 6 11 1 17 -2 13 -5z m-608 -50 c14 -3 29 -8 34 -11 6 -3 7 -1 3 5
-3 6 -2 13 3 16 5 4 12 -2 15 -12 3 -10 22 -24 42 -31 19 -7 33 -15 30 -18 -8
-8 -86 -9 -86 0 0 4 -6 6 -12 5 -7 -2 -12 3 -10 11 2 11 -2 11 -22 -2 -21 -14
-26 -15 -37 -1 -7 8 -18 13 -26 10 -16 -7 -16 -1 -1 24 8 12 19 18 28 14 8 -3
26 -8 39 -10z m200 -59 c12 -2 25 -6 29 -9 5 -3 31 -8 58 -11 27 -4 56 -13 64
-20 8 -7 49 -18 90 -24 103 -16 248 -50 289 -67 18 -8 41 -14 50 -14 34 0 191
-54 191 -66 0 -9 -18 -5 -62 11 -78 29 -188 46 -205 33 -9 -7 -26 -4 -55 10
-47 22 -77 30 -141 38 -23 3 -67 12 -99 19 -37 9 -60 9 -66 3 -6 -6 -16 -7
-24 -2 -7 5 -15 9 -18 10 -3 0 -23 5 -45 11 -22 6 -52 14 -66 17 -18 4 -29 15
-36 41 -10 33 -10 35 7 30 10 -3 28 -8 39 -10z m-1533 -81 c-4 -14 -11 -22
-16 -19 -5 3 -7 11 -5 18 2 7 7 26 11 42 7 28 8 28 12 6 2 -12 1 -34 -2 -47z
m147 29 c-7 -2 -19 -2 -25 0 -7 3 -2 5 12 5 14 0 19 -2 13 -5z m-97 -19 c-3
-9 -6 -20 -6 -25 0 -15 -17 -10 -24 7 -8 20 1 34 21 34 10 0 13 -6 9 -16z
m158 -14 c55 -10 135 -25 176 -32 104 -17 49 -21 -85 -6 -60 7 -138 11 -172 8
-33 -3 -59 -2 -57 2 2 4 0 9 -6 13 -16 10 9 48 27 41 8 -4 61 -15 117 -26z
m-1 23 c-7 -2 -21 -2 -30 0 -10 3 -4 5 12 5 17 0 24 -2 18 -5z m875 -39 c22
-6 30 -28 13 -38 -5 -3 -23 -3 -40 0 -21 5 -31 12 -31 25 0 20 17 24 58 13z
m-1099 -94 c3 -3 12 -21 18 -40 10 -25 10 -37 1 -45 -8 -7 -9 -6 -3 3 4 8 0
18 -10 26 -9 7 -18 30 -20 56 -3 25 -2 36 1 25 4 -11 9 -22 13 -25z m1676 4
c72 -14 144 -27 160 -29 72 -11 307 -22 388 -18 57 3 87 1 87 -6 0 -27 -341
-15 -532 18 -65 12 -121 20 -125 19 -14 -3 -127 14 -150 23 -36 13 -29 33 10
25 17 -4 91 -19 162 -32z m-1591 -7 c12 -11 200 -41 658 -103 126 -18 126 -18
130 -46 4 -26 -6 -39 -14 -20 -1 5 -174 30 -383 56 -242 30 -385 52 -395 60
-8 8 -24 16 -35 20 -12 3 -21 15 -22 26 -1 15 4 20 23 20 14 0 31 -6 38 -13z
m-1064 -37 c0 -5 -5 -10 -11 -10 -5 0 -7 5 -4 10 3 6 8 10 11 10 2 0 4 -4 4
-10z m123 -9 c-3 -10 0 -28 6 -40 16 -29 7 -26 -14 5 -13 20 -14 28 -4 40 15
19 18 18 12 -5z m133 -13 c-1 -25 4 -35 22 -43 12 -5 22 -13 22 -17 0 -15 -48
15 -60 38 -11 19 -11 26 0 39 17 21 18 20 16 -17z m138 -4 c4 -19 10 -43 13
-52 4 -11 3 -14 -4 -7 -13 13 -33 95 -23 95 4 0 11 -16 14 -36z m140 21 c-4
-8 -8 -15 -10 -15 -2 0 -4 7 -4 15 0 8 4 15 10 15 5 0 7 -7 4 -15z m300 -1 c3
-8 2 -12 -4 -9 -6 3 -10 10 -10 16 0 14 7 11 14 -7z m-794 -44 c-19 -16 -37
-27 -39 -24 -2 2 8 13 22 25 15 11 27 28 27 37 0 13 2 14 13 3 10 -10 5 -18
-23 -41z m765 25 c-2 -33 -15 -45 -15 -13 0 20 7 38 14 38 1 0 1 -11 1 -25z
m112 -7 c-3 -7 -5 -2 -5 12 0 14 2 19 5 13 2 -7 2 -19 0 -25z m-699 -22 c-2
-15 -11 -21 -31 -22 -25 -1 -25 -1 -2 3 27 5 33 30 13 53 -11 12 -10 12 5 0
10 -7 17 -23 15 -34z m419 7 c-3 -10 -5 -4 -5 12 0 17 2 24 5 18 2 -7 2 -21 0
-30z m-287 -9 c0 -7 -7 -15 -16 -18 -14 -5 -15 -4 -5 8 6 7 9 22 5 32 -5 16
-4 16 5 4 6 -8 11 -20 11 -26z m117 6 c11 -16 10 -18 -1 -14 -15 6 -30 34 -18
34 4 0 13 -9 19 -20z m93 -18 c13 -12 13 -13 -4 -10 -10 1 -23 14 -28 28 -8
21 -7 23 4 10 7 -8 20 -21 28 -28z m493 6 c-8 -47 -22 -70 -23 -38 0 34 11 70
21 70 5 0 6 -15 2 -32z m-1193 18 c0 -2 -7 -7 -16 -10 -8 -3 -12 -2 -9 4 6 10
25 14 25 6z m3085 -21 c110 -23 270 -67 280 -78 7 -7 4 -8 -10 -3 -10 4 -53
11 -95 17 -41 5 -113 20 -160 33 -47 14 -102 28 -122 31 -21 4 -38 11 -38 15
0 9 59 3 145 -15z m-1757 -2 c-10 -2 -28 -2 -40 0 -13 2 -5 4 17 4 22 1 32 -1
23 -4z m-1115 -10 c-7 -2 -19 -2 -25 0 -7 3 -2 5 12 5 14 0 19 -2 13 -5z
m1004 -15 c-3 -8 -6 -5 -6 6 -1 11 2 17 5 13 3 -3 4 -12 1 -19z m166 15 c-7
-2 -19 -2 -25 0 -7 3 -2 5 12 5 14 0 19 -2 13 -5z m-73 -14 c8 0 4 -4 -10 -8
-28 -9 -50 -4 -50 11 0 6 10 8 23 4 12 -3 29 -6 37 -7z m210 2 l45 -8 -40 -1
c-22 0 -60 3 -85 7 l-45 8 40 1 c22 0 60 -3 85 -7z m-65 -21 c19 -5 6 -6 -35
-3 -36 3 -67 7 -69 9 -8 7 73 2 104 -6z m158 3 c-7 -2 -21 -2 -30 0 -10 3 -4
5 12 5 17 0 24 -2 18 -5z m606 -9 c2 -2 1 -11 -3 -20 -4 -11 -15 -15 -36 -12
-16 3 -31 2 -33 -1 -2 -3 -2 0 0 7 1 8 3 20 3 28 0 10 8 12 33 7 17 -3 34 -7
36 -9z m-522 0 c-3 -3 -12 -4 -19 -1 -8 3 -5 6 6 6 11 1 17 -2 13 -5z m-1170
-28 c-3 -7 0 -19 6 -25 8 -8 8 -11 0 -11 -11 0 -23 22 -23 41 0 5 5 9 11 9 6
0 9 -6 6 -14z m50 8 c-3 -3 -12 -4 -19 -1 -8 3 -5 6 6 6 11 1 17 -2 13 -5z
m125 -21 c-5 -24 -6 -25 -12 -8 -8 21 -4 35 9 35 5 0 6 -12 3 -27z m464 -5 c6
-29 8 -30 15 -13 4 11 8 15 8 8 1 -6 12 -10 27 -8 14 1 32 -5 41 -13 11 -11
106 -27 357 -58 187 -24 346 -43 352 -44 16 0 26 -40 11 -40 -14 0 -333 33
-482 50 -55 6 -112 9 -127 6 -15 -3 -30 -1 -33 4 -3 6 -15 10 -25 10 -10 0
-41 12 -67 26 -40 21 -49 23 -51 10 -2 -9 -7 -16 -12 -16 -10 0 -24 31 -21 48
1 6 -3 12 -8 12 -6 0 -8 7 -5 15 4 8 1 15 -6 15 -6 0 -8 5 -5 10 12 19 23 10
31 -22z m681 26 c-3 -3 -12 -4 -19 -1 -8 3 -5 6 6 6 11 1 17 -2 13 -5z m-805
-31 c-3 -16 -7 -22 -10 -15 -4 13 4 42 11 42 2 0 2 -12 -1 -27z m1679 12 c18
0 25 -4 21 -14 -4 -11 -21 -12 -79 -7 -79 6 -97 12 -88 27 4 5 30 6 63 2 31
-4 69 -8 83 -8z m-1891 -33 c0 -15 -2 -15 -10 -2 -13 20 -13 33 0 25 6 -3 10
-14 10 -23z m279 -6 c-8 -17 -15 -22 -20 -15 -3 6 1 19 10 29 21 22 24 18 10
-14z m1796 15 c81 -10 277 -8 395 4 48 4 61 3 48 -4 -34 -22 -293 -31 -438
-16 -74 8 -141 15 -148 15 -7 0 -10 5 -7 10 4 6 21 8 38 6 18 -3 68 -9 112
-15z m-2305 -22 c0 -10 -3 -19 -7 -19 -5 0 -8 11 -8 24 0 13 3 22 8 19 4 -2 7
-13 7 -24z m310 3 c0 -8 -1 -13 -3 -11 -1 2 -9 12 -16 22 -12 15 -12 17 3 11
9 -3 16 -13 16 -22z m-130 -1 c0 -5 -7 -12 -16 -15 -14 -5 -15 -4 -4 9 14 17
20 19 20 6z m103 -18 c-7 -2 -19 -2 -25 0 -7 3 -2 5 12 5 14 0 19 -2 13 -5z
m2122 -38 c50 -8 110 -21 134 -30 24 -8 56 -16 71 -17 16 -1 27 -5 24 -9 -6
-10 -194 -7 -194 3 0 4 -8 8 -17 8 -14 0 -15 2 -4 9 9 6 1 11 -30 16 -56 10
-121 33 -94 34 11 1 61 -6 110 -14z m-1764 -48 c-13 -13 -15 11 -4 40 7 16 8
15 11 -6 2 -13 -1 -28 -7 -34z m1459 43 c0 -5 -4 -10 -10 -10 -5 0 -10 5 -10
10 0 6 5 10 10 10 6 0 10 -4 10 -10z m-1375 -30 c3 -6 -1 -17 -9 -26 -15 -14
-16 -13 -16 10 0 26 13 35 25 16z m58 -17 c-7 -2 -19 -2 -25 0 -7 3 -2 5 12 5
14 0 19 -2 13 -5z m817 -23 c0 -16 -7 -20 -34 -20 -29 0 -33 3 -29 20 4 14 14
20 34 20 22 0 29 -5 29 -20z m1080 3 c0 -10 -4 -14 -8 -8 -4 6 -11 13 -16 18
-5 4 -2 7 7 7 10 0 17 -8 17 -17z m-2022 -51 c15 1 33 6 40 11 8 7 12 4 12
-10 0 -18 14 -21 158 -36 484 -53 522 -58 522 -81 l0 -22 -322 33 c-178 18
-329 34 -338 36 -8 1 -21 -4 -28 -13 -11 -13 -12 -12 -10 9 2 17 -3 26 -19 32
-17 6 -23 5 -23 -6 0 -12 -19 -23 -20 -12 -4 41 -6 96 -3 80 3 -17 11 -22 31
-21z m1416 32 c17 -1 69 -8 116 -15 79 -11 339 -7 440 6 30 4 32 4 10 -4 -79
-30 -522 -29 -541 1 -7 10 -9 10 -9 1 0 -14 -59 -17 -122 -7 -26 5 -35 10 -31
21 5 11 17 13 56 8 27 -4 64 -9 81 -11z m394 -100 c101 -24 103 -28 22 -34
-41 -3 -79 -4 -85 -1 -5 3 -16 6 -24 8 -8 1 -17 6 -20 11 -3 5 -35 17 -71 25
l-65 16 88 -4 c49 -3 119 -12 155 -21z m-1675 -31 c-7 -2 -19 -2 -25 0 -7 3
-2 5 12 5 14 0 19 -2 13 -5z m1817 -9 c0 -8 -4 -12 -10 -9 -5 3 -10 10 -10 16
0 5 5 9 10 9 6 0 10 -7 10 -16z m-1028 -3 c3 0 4 -10 1 -21 -9 -35 -53 -19
-53 19 0 7 23 8 52 2z m446 -26 c17 0 32 -3 32 -7 0 -16 -25 -20 -86 -13 -47
5 -64 11 -64 22 0 12 8 13 43 7 23 -5 57 -8 75 -9z m-1295 -14 c40 11 37 12
37 -6 0 -8 10 -17 23 -19 28 -7 325 -45 437 -56 161 -17 170 -19 170 -41 0
-25 -7 -25 -276 6 -120 14 -246 28 -279 31 -33 4 -67 12 -75 18 -8 7 -28 17
-43 24 -26 11 -27 11 -17 -8 8 -16 8 -18 -4 -14 -15 6 -26 35 -26 69 1 18 2
18 10 3 8 -13 16 -15 43 -7z m1833 8 c-93 -27 -496 -35 -496 -9 0 5 78 6 173
3 94 -2 192 0 217 5 25 5 65 10 90 10 41 0 43 0 16 -9z m-536 -89 c0 -6 -19
-7 -47 -3 -65 8 -67 13 -5 13 29 0 52 -4 52 -10z m430 -27 c116 -32 71 -36
-110 -11 -47 7 -75 14 -62 16 12 2 20 8 16 13 -7 13 82 2 156 -18z m-870 -33
c0 -15 -7 -20 -25 -20 -18 0 -25 5 -25 20 0 15 7 20 25 20 18 0 25 -5 25 -20z
m439 -17 c3 -2 0 -8 -6 -14 -16 -16 -143 -1 -143 17 0 11 14 13 73 8 39 -4 74
-8 76 -11z m-424 -23 c3 -5 2 -10 -4 -10 -5 0 -13 5 -16 10 -3 6 -2 10 4 10 5
0 13 -4 16 -10z m105 -15 c0 -12 -29 -3 -34 10 -4 13 -2 14 14 5 11 -6 20 -13
20 -15z m45 -5 c19 -8 19 -9 -2 -9 -12 -1 -25 4 -28 9 -7 12 2 12 30 0z m285
-50 c0 -5 -2 -10 -4 -10 -3 0 -8 5 -11 10 -3 6 -1 10 4 10 6 0 11 -4 11 -10z
m-440 -37 c0 -21 -3 -22 -20 -13 -11 6 -20 19 -20 29 0 14 5 18 20 14 13 -4
20 -14 20 -30z m408 -17 c22 0 30 -20 13 -30 -4 -3 -36 -1 -70 5 -42 8 -61 16
-61 26 0 11 9 13 48 7 26 -4 57 -8 70 -8z m-260 -116 c26 0 32 -4 32 -21 0
-19 -4 -20 -68 -15 -98 8 -132 17 -142 36 -5 10 -7 19 -5 22 3 2 37 -1 77 -8
40 -7 88 -13 106 -14z m282 -43 c0 -6 -27 -8 -64 -5 -65 6 -90 14 -82 27 7 10
146 -11 146 -22z m115 -17 c3 -5 2 -10 -4 -10 -5 0 -13 5 -16 10 -3 6 -2 10 4
10 5 0 13 -4 16 -10z"/>
<path d="M2320 3630 c0 -5 7 -7 15 -4 8 4 15 8 15 10 0 2 -7 4 -15 4 -8 0 -15
-4 -15 -10z"/>
<path d="M2487 3609 c7 -7 15 -10 18 -7 3 3 -2 9 -12 12 -14 6 -15 5 -6 -5z"/>
<path d="M2807 3409 c7 -7 15 -10 18 -7 3 3 -2 9 -12 12 -14 6 -15 5 -6 -5z"/>
<path d="M2230 3400 c8 -5 20 -10 25 -10 6 0 3 5 -5 10 -8 5 -19 10 -25 10 -5
0 -3 -5 5 -10z"/>
<path d="M2500 3310 c8 -5 20 -10 25 -10 6 0 3 5 -5 10 -8 5 -19 10 -25 10 -5
0 -3 -5 5 -10z"/>
<path d="M2668 3213 c7 -3 16 -2 19 1 4 3 -2 6 -13 5 -11 0 -14 -3 -6 -6z"/>
<path d="M3761 3343 c7 -12 15 -20 18 -17 3 2 -3 12 -13 22 -17 16 -18 16 -5
-5z"/>
<path d="M4040 3043 c0 -6 8 -17 18 -24 16 -13 16 -13 2 6 -8 11 -16 22 -17
24 -2 2 -3 0 -3 -6z"/>
<path d="M3596 3195 c4 -8 8 -15 10 -15 2 0 4 7 4 15 0 8 -4 15 -10 15 -5 0
-7 -7 -4 -15z"/>
<path d="M3520 3136 c0 -3 9 -10 20 -16 11 -6 20 -8 20 -6 0 3 -9 10 -20 16
-11 6 -20 8 -20 6z"/>
<path d="M3871 2995 c6 -15 99 -99 98 -89 -1 5 -24 29 -52 54 -27 25 -48 40
-46 35z"/>
<path d="M3526 3018 c3 -5 10 -6 15 -3 13 9 11 12 -6 12 -8 0 -12 -4 -9 -9z"/>
<path d="M3560 2901 c0 -5 7 -12 16 -15 14 -5 15 -4 4 9 -14 17 -20 19 -20 6z"/>
<path d="M1955 3030 c3 -5 16 -10 28 -10 18 0 19 2 7 10 -20 13 -43 13 -35 0z"/>
<path d="M2040 3010 c-13 -8 -13 -10 2 -10 9 0 20 5 23 10 8 13 -5 13 -25 0z"/>
<path d="M2080 2992 c0 -5 7 -9 15 -9 8 0 15 4 15 9 0 4 -7 8 -15 8 -8 0 -15
-4 -15 -8z"/>
<path d="M2215 2950 c3 -5 13 -10 21 -10 8 0 12 5 9 10 -3 6 -13 10 -21 10 -8
0 -12 -4 -9 -10z"/>
<path d="M2315 2939 c4 -6 -3 -7 -21 -3 -17 4 -25 3 -21 -3 4 -6 18 -13 32
-15 13 -3 22 -2 20 3 -3 4 0 9 7 11 7 3 5 7 -6 11 -10 4 -15 3 -11 -4z"/>
<path d="M2355 2920 c3 -5 8 -10 11 -10 2 0 4 5 4 10 0 6 -5 10 -11 10 -5 0
-7 -4 -4 -10z"/>
<path d="M2392 2913 c-18 -7 -4 -23 22 -23 12 0 26 -3 30 -7 13 -14 76 -31 82
-22 3 5 -3 9 -13 9 -10 0 -31 7 -47 15 -15 8 -37 15 -48 15 -10 0 -16 5 -13
10 7 11 6 11 -13 3z"/>
<path d="M2550 2850 c-9 -6 -10 -10 -3 -10 6 0 15 5 18 10 8 12 4 12 -15 0z"/>
<path d="M893 3023 c9 -2 23 -2 30 0 6 3 -1 5 -18 5 -16 0 -22 -2 -12 -5z"/>
<path d="M1598 2883 c7 -3 16 -2 19 1 4 3 -2 6 -13 5 -11 0 -14 -3 -6 -6z"/>
<path d="M3407 2559 c7 -7 15 -10 18 -7 3 3 -2 9 -12 12 -14 6 -15 5 -6 -5z"/>
<path d="M3475 2540 c11 -5 27 -9 35 -9 9 0 8 4 -5 9 -11 5 -27 9 -35 9 -9 0
-8 -4 5 -9z"/>
<path d="M2428 2383 c7 -3 16 -2 19 1 4 3 -2 6 -13 5 -11 0 -14 -3 -6 -6z"/>
<path d="M2867 4093 c-10 -9 -9 -23 2 -23 5 0 11 7 15 15 5 15 -5 20 -17 8z"/>
<path d="M3138 4083 c-16 -2 -28 -9 -28 -14 0 -6 8 -8 19 -4 10 3 30 0 45 -6
14 -7 29 -9 32 -6 9 9 -15 37 -30 36 -6 -1 -23 -4 -38 -6z"/>
<path d="M3160 4044 c0 -9 28 -34 39 -34 6 0 3 9 -6 20 -17 19 -33 26 -33 14z"/>
<path d="M3210 3994 c0 -13 18 -39 24 -34 2 3 -2 14 -10 24 -8 11 -14 16 -14
10z"/>
<path d="M2942 3966 c7 -8 15 -12 17 -11 5 6 -10 25 -20 25 -5 0 -4 -6 3 -14z"/>
<path d="M2570 3922 l-25 -25 25 8 c14 4 40 9 58 12 26 4 30 8 21 19 -17 21
-51 15 -79 -14z"/>
<path d="M2631 3907 c32 -26 69 -47 69 -40 0 9 -52 43 -66 43 -4 0 -5 -1 -3
-3z"/>
<path d="M2550 3800 c0 -5 4 -10 9 -10 5 0 26 -16 47 -35 55 -51 65 -43 12 10
-44 43 -68 56 -68 35z"/>
<path d="M2790 3790 c0 -5 7 -10 15 -10 8 0 15 -4 15 -10 0 -5 5 -10 11 -10
14 0 2 18 -22 30 -13 7 -19 7 -19 0z"/>
<path d="M3160 3766 c0 -2 8 -10 18 -17 15 -13 16 -12 3 4 -13 16 -21 21 -21
13z"/>
<path d="M2917 3709 c7 -7 15 -10 18 -7 3 3 -2 9 -12 12 -14 6 -15 5 -6 -5z"/>
<path d="M2967 3669 c7 -7 15 -10 18 -7 3 3 -2 9 -12 12 -14 6 -15 5 -6 -5z"/>
<path d="M3005 3651 c-3 -5 -2 -12 3 -15 5 -3 9 1 9 9 0 17 -3 19 -12 6z"/>
<path d="M3070 3600 c0 -6 7 -10 15 -10 8 0 15 2 15 4 0 2 -7 6 -15 10 -8 3
-15 1 -15 -4z"/>
<path d="M2105 1240 c-3 -5 -1 -10 4 -10 6 0 11 5 11 10 0 6 -2 10 -4 10 -3 0
-8 -4 -11 -10z"/>
<path d="M2080 1216 c0 -9 5 -16 10 -16 6 0 10 4 10 9 0 6 -4 13 -10 16 -5 3
-10 -1 -10 -9z"/>
</g>
</svg>
