<?xml version="1.0" standalone="no"?>
<!DOCTYPE svg PUBLIC "-//W3C//DTD SVG 20010904//EN"
 "http://www.w3.org/TR/2001/REC-SVG-20010904/DTD/svg10.dtd">
<svg version="1.0" xmlns="http://www.w3.org/2000/svg"
 width="474.000000pt" height="474.000000pt" viewBox="0 0 474.000000 474.000000"
 preserveAspectRatio="xMidYMid meet">
<metadata>
Created by potrace 1.14, written by Peter Selinger 2001-2017
</metadata>
<g transform="translate(0.000000,474.000000) scale(0.100000,-0.100000)"
fill="#000000" stroke="none">
<path d="M2145 4729 c-296 -30 -565 -108 -830 -239 -172 -85 -336 -192 -490
-320 -59 -49 -239 -236 -296 -308 -190 -236 -326 -489 -418 -772 -32 -99 -75
-278 -86 -365 -4 -27 -11 -77 -15 -110 -8 -59 -5 -471 3 -510 3 -11 8 -45 12
-75 27 -213 113 -488 220 -705 217 -442 556 -797 992 -1038 181 -100 502 -215
678 -243 21 -3 47 -8 59 -10 11 -2 44 -7 71 -10 28 -4 72 -10 100 -14 53 -8
444 -5 485 4 14 3 45 7 70 10 154 18 368 76 557 151 440 175 820 486 1088 890
193 291 303 576 369 960 14 80 21 184 20 330 0 198 -9 300 -40 460 -8 44 -18
91 -20 105 -3 14 -16 63 -30 110 -77 255 -191 494 -333 695 -379 540 -957 895
-1608 991 -118 18 -444 25 -558 13z"/>
</g>
</svg>
